<?xml version="1.0" standalone="no"?>
<!DOCTYPE svg PUBLIC "-//W3C//DTD SVG 20010904//EN"
 "http://www.w3.org/TR/2001/REC-SVG-20010904/DTD/svg10.dtd">
<svg version="1.0" xmlns="http://www.w3.org/2000/svg"
 width="260.000000pt" height="260.000000pt" viewBox="0 0 260.000000 260.000000"
 preserveAspectRatio="xMidYMid meet">
<metadata>
Created by potrace 1.11, written by Peter Selinger 2001-2013
</metadata>
<g transform="translate(0.000000,260.000000) scale(0.100000,-0.100000)"
fill="#000000" stroke="none">
<path d="M120 1300 l0 -1180 1180 0 1180 0 0 1180 0 1180 -1180 0 -1180 0 0
-1180z m280 75 l0 -795 440 0 440 0 0 -75 0 -75 -525 0 -525 0 0 870 0 870 85
0 85 0 0 -795z m1585 771 c94 -26 161 -63 206 -114 153 -174 154 -430 3 -578
-25 -23 -71 -56 -104 -71 -32 -15 -59 -31 -59 -34 -1 -3 29 -18 66 -33 176
-72 259 -170 282 -331 31 -216 -65 -411 -245 -499 -94 -46 -177 -55 -501 -56
l-293 0 0 75 0 75 288 0 c318 0 370 7 445 59 101 69 132 134 132 276 0 89 -3
106 -28 157 -33 67 -80 111 -157 147 l-55 26 -342 3 -343 3 0 -310 0 -311 -85
0 -85 0 0 771 0 771 408 -5 c342 -3 417 -7 467 -21z"/>
<path d="M1280 1709 l0 -310 308 3 c284 3 311 5 358 24 119 49 175 127 182
254 11 188 -84 302 -275 330 -37 5 -182 10 -320 10 l-253 0 0 -311z"/>
</g>
</svg>
